<svg width="51" height="50" viewBox="0 0 51 50" fill="none" xmlns="http://www.w3.org/2000/svg">
<path d="M38.1673 31.25H34.0007V35.4167H38.1673M38.1673 22.9167H34.0007V27.0833H38.1673M42.334 39.5833H25.6673V35.4167H29.834V31.25H25.6673V27.0833H29.834V22.9167H25.6673V18.75H42.334M21.5007 14.5833H17.334V10.4167H21.5007M21.5007 22.9167H17.334V18.75H21.5007M21.5007 31.25H17.334V27.0833H21.5007M21.5007 39.5833H17.334V35.4167H21.5007M13.1673 14.5833H9.00065V10.4167H13.1673M13.1673 22.9167H9.00065V18.75H13.1673M13.1673 31.25H9.00065V27.0833H13.1673M13.1673 39.5833H9.00065V35.4167H13.1673M25.6673 14.5833V6.25H4.83398V43.75H46.5007V14.5833H25.6673Z" fill="white"/>
</svg>
