<svg width="60" height="60" viewBox="0 0 60 60" fill="none" xmlns="http://www.w3.org/2000/svg">
<path d="M29.5 50.0625C28.125 50.0625 26.9475 49.5625 25.9675 48.5625C24.9875 47.5625 24.4983 46.375 24.5 45C24.5 43.625 24.99 42.4475 25.97 41.4675C26.95 40.4875 28.1267 39.9983 29.5 40L31 38.5625C31.3333 38.2292 31.7192 37.9683 32.1575 37.78C32.5958 37.5917 33.0433 37.4983 33.5 37.5C34.4583 37.5 35.2817 37.8542 35.97 38.5625C36.6583 39.2708 37.0017 40.1042 37 41.0625V42.125C37 42.9583 37.2708 43.6458 37.8125 44.1875C38.3542 44.7292 39.0417 45 39.875 45C40.5 45 41.0625 44.8125 41.5625 44.4375C42.0625 44.0625 42.4167 43.5833 42.625 43L43.375 40.9375C43.75 39.9375 44.3542 39.1142 45.1875 38.4675C46.0208 37.8208 46.9792 37.4983 48.0625 37.5C48.5208 36.3333 48.8858 35.125 49.1575 33.875C49.4292 32.625 49.5642 31.3333 49.5625 30C49.5625 26.2917 48.6358 22.9058 46.7825 19.8425C44.9292 16.7792 42.5017 14.3733 39.5 12.625V15C39.5 16.375 39.01 17.5525 38.03 18.5325C37.05 19.5125 35.8733 20.0017 34.5 20H32V25C32 25.7083 31.76 26.3025 31.28 26.7825C30.8 27.2625 30.2067 27.5017 29.5 27.5H27V31.75C27 32.6667 26.6875 33.4375 26.0625 34.0625C25.4375 34.6875 24.6667 35 23.75 35C23.1667 35 22.635 34.875 22.155 34.625C21.675 34.375 21.29 34.0208 21 33.5625L17 27.5H14.5V30C14.5 31.2917 14.0625 32.3958 13.1875 33.3125C12.3125 34.2292 11.2708 34.7708 10.0625 34.9375C11.1458 39.2708 13.49 42.875 17.095 45.75C20.7 48.625 24.835 50.0625 29.5 50.0625ZM34.5 35C33.7917 35 33.1975 34.7608 32.7175 34.2825C32.2375 33.8042 31.9983 33.21 32 32.5C32 31.7917 32.24 31.1975 32.72 30.7175C33.2 30.2375 33.7933 29.9983 34.5 30H37C37.7083 30 38.3025 30.24 38.7825 30.72C39.2625 31.2 39.5017 31.7933 39.5 32.5C39.5 33.2083 39.26 33.8025 38.78 34.2825C38.3 34.7625 37.7067 35.0017 37 35H34.5ZM40.3125 27.5C39.4792 27.5 38.8225 27.1775 38.3425 26.5325C37.8625 25.8875 37.7483 25.1683 38 24.375L38.9375 21.625C39.1042 21.125 39.3958 20.7292 39.8125 20.4375C40.2292 20.1458 40.6875 20 41.1875 20C42.0208 20 42.6775 20.3233 43.1575 20.97C43.6375 21.6167 43.7517 22.335 43.5 23.125L42.5625 25.875C42.3958 26.375 42.1042 26.7708 41.6875 27.0625C41.2708 27.3542 40.8125 27.5 40.3125 27.5ZM29.5 55C26.0417 55 22.7917 54.3433 19.75 53.03C16.7083 51.7167 14.0625 49.9358 11.8125 47.6875C9.5625 45.4375 7.78167 42.7917 6.47 39.75C5.15833 36.7083 4.50167 33.4583 4.5 30C4.5 26.5417 5.15667 23.2917 6.47 20.25C7.78333 17.2083 9.56417 14.5625 11.8125 12.3125C14.0625 10.0625 16.7083 8.28167 19.75 6.97C22.7917 5.65833 26.0417 5.00167 29.5 5C32.9583 5 36.2083 5.65667 39.25 6.97C42.2917 8.28333 44.9375 10.0642 47.1875 12.3125C49.4375 14.5625 51.2192 17.2083 52.5325 20.25C53.8458 23.2917 54.5017 26.5417 54.5 30C54.5 33.4583 53.8433 36.7083 52.53 39.75C51.2167 42.7917 49.4358 45.4375 47.1875 47.6875C44.9375 49.9375 42.2917 51.7192 39.25 53.0325C36.2083 54.3458 32.9583 55.0017 29.5 55Z" fill="black"/>
</svg>
