<svg width="50" height="50" viewBox="0 0 50 50" fill="none" xmlns="http://www.w3.org/2000/svg">
<path d="M37.5002 21.875V12.5L33.1043 14.7083C33.4012 15.9343 33.4157 17.2117 33.1469 18.4441C32.8781 19.6766 32.3329 20.8319 31.5525 21.823C30.7721 22.814 29.7769 23.6149 28.6418 24.1652C27.5068 24.7156 26.2616 25.001 25.0002 25C23.7387 25.001 22.4935 24.7156 21.3585 24.1652C20.2235 23.6149 19.2282 22.814 18.4478 21.823C17.6674 20.8319 17.1223 19.6766 16.8534 18.4441C16.5846 17.2117 16.5992 15.9343 16.896 14.7083L10.4168 11.4583L25.0002 4.16663L39.5835 11.4583V21.875H37.5002ZM25.0002 18.75L20.8335 16.6666C20.8335 18.9583 22.7085 20.8333 25.0002 20.8333C27.2918 20.8333 29.1668 18.9583 29.1668 16.6666L25.0002 18.75ZM30.7293 11.2916L25.3335 8.54163L19.7293 11.3958L25.146 14.1458L30.7293 11.2916ZM25.0002 27.0833C30.5627 27.0833 41.6668 29.8541 41.6668 35.4166V41.6666H8.3335V35.4166C8.3335 29.8541 19.4377 27.0833 25.0002 27.0833ZM25.0002 31.0416C18.7502 31.0416 12.2918 34.0833 12.2918 35.4166V37.7083H37.7085V35.4166C37.7085 34.0833 31.1877 31.0416 25.0002 31.0416Z" fill="white"/>
</svg>
