<svg width="51" height="50" viewBox="0 0 51 50" fill="none" xmlns="http://www.w3.org/2000/svg">
<path d="M42.1667 35.4166C43.2717 35.4166 44.3315 34.9776 45.1129 34.1962C45.8943 33.4148 46.3333 32.355 46.3333 31.25V8.33329C46.3333 7.22822 45.8943 6.16842 45.1129 5.38701C44.3315 4.60561 43.2717 4.16663 42.1667 4.16663H20.2083C20.9375 5.43746 21.3333 6.87496 21.3333 8.33329H42.1667V31.25H23.4167V35.4166M31.75 14.5833V18.75H19.25V45.8333H15.0833V33.3333H10.9167V45.8333H6.75V29.1666H3.625V18.75C3.625 17.6449 4.06399 16.5851 4.84539 15.8037C5.62679 15.0223 6.6866 14.5833 7.79167 14.5833H31.75ZM17.1667 8.33329C17.1667 9.43836 16.7277 10.4982 15.9463 11.2796C15.1649 12.061 14.1051 12.5 13 12.5C11.8949 12.5 10.8351 12.061 10.0537 11.2796C9.27232 10.4982 8.83333 9.43836 8.83333 8.33329C8.83333 7.22822 9.27232 6.16842 10.0537 5.38701C10.8351 4.60561 11.8949 4.16663 13 4.16663C14.1051 4.16663 15.1649 4.60561 15.9463 5.38701C16.7277 6.16842 17.1667 7.22822 17.1667 8.33329Z" fill="white"/>
</svg>
