<svg width="51" height="50" viewBox="0 0 51 50" fill="none" xmlns="http://www.w3.org/2000/svg">
<path d="M47.2188 5.05835C46.6257 4.56493 45.9098 4.24158 45.1475 4.12272C44.3852 4.00385 43.6049 4.09393 42.8897 4.38335L5.55425 19.4563C4.75603 19.7848 4.07657 20.3483 3.60601 21.0719C3.13545 21.7956 2.89604 22.6452 2.91955 23.5081C2.94305 24.3709 3.22836 25.2063 3.73761 25.9032C4.24686 26.6002 4.95599 27.1258 5.77092 27.4104L13.323 30.0375L17.5313 43.9584C17.589 44.1441 17.6725 44.3208 17.7793 44.4834C17.7959 44.5084 17.8188 44.525 17.8355 44.5521C17.9583 44.723 18.1065 44.8741 18.2751 45C18.3221 45.0369 18.3708 45.0716 18.4209 45.1042C18.6183 45.2352 18.8367 45.331 19.0667 45.3875L19.0938 45.3896L19.1063 45.3959C19.2456 45.4238 19.3872 45.4378 19.5293 45.4375L19.5667 45.4313C19.7801 45.4277 19.9916 45.3912 20.1938 45.3229C20.2418 45.3063 20.2813 45.2813 20.3272 45.2604C20.4784 45.1984 20.6218 45.1187 20.7543 45.0229C20.8598 44.9333 20.9653 44.8437 21.0709 44.7542L26.7001 38.5396L35.0959 45.0438C35.8349 45.6194 36.7446 45.9324 37.6813 45.9334C38.6631 45.9322 39.6146 45.5935 40.3763 44.9741C41.1379 44.3547 41.6634 43.4922 41.8647 42.5313L48.6626 9.16252C48.8163 8.41181 48.7632 7.63342 48.5089 6.91055C48.2546 6.18767 47.8087 5.54747 47.2188 5.05835ZM20.3542 30.7C20.0657 30.988 19.8686 31.3547 19.7876 31.7542L19.1418 34.8875L17.5084 29.4854L25.9772 25.075L20.3542 30.7ZM37.6501 41.75L27.7272 34.0625C27.312 33.7421 26.7913 33.5899 26.2689 33.6363C25.7465 33.6826 25.2607 33.924 24.9084 34.3125L23.1042 36.3021L23.7418 33.2042L38.498 18.4479C38.8481 18.0957 39.0609 17.6299 39.0979 17.1346C39.1349 16.6394 38.9938 16.1472 38.7 15.7467C38.4061 15.3463 37.9789 15.0641 37.4953 14.9508C37.0118 14.8376 36.5036 14.9009 36.0626 15.1292L14.8855 26.1542L7.12508 23.3146L44.5813 8.33335L37.6501 41.75Z" fill="white"/>
</svg>
